screens;
 
http://imgcum.com/img-507f155c11b4e.html
 
http://imgcum.com/img-507f158216c86.html

Format                                   : Matroska
Format version                           : Version 1
File size                                : 338 MiB
Duration                                 : 45mn 56s
Overall bit rate                         : 1 029 Kbps
Writing application                      : DivXMKVMux 3.4.1.0004
Writing library                          : libDivXMediaFormat 3.4.1.0004

Video
ID                                       : 1
Format                                   : AVC
Format/Info                              : Advanced Video Codec
Format profile                           : High@L4.0
MultiView_Count                          : 2
Format settings, CABAC                   : Yes
Format settings, ReFrames                : 4 frames
Codec ID                                 : V_MPEG4/ISO/AVC
Duration                                 : 45mn 56s
Bit rate                                 : 881 Kbps
Width                                    : 720 pixels
Height                                   : 480 pixels
Display aspect ratio                     : 3:2
Frame rate                               : 29.970 fps
Standard                                 : NTSC
Color space                              : YUV
Chroma subsampling                       : 4:2:0
Bit depth                                : 8 bits
Scan type                                : Progressive
Bits/(Pixel*Frame)                       : 0.085
Stream size                              : 289 MiB (86%)
Language                                 : English
Default                                  : Yes
Forced                                   : No
Color primaries                          : BT.601-6 525, BT.1358 525, BT.1700 NTSC, SMPTE 170M
Transfer characteristics                 : BT.601-6 525, BT.601-6 625, BT.1358 525, BT.1358 625, BT.1700 NTSC, SMPTE 170M
Matrix coefficients                      : BT.601-6 525, BT.1358 525, BT.1700 NTSC, SMPTE 170M

Audio
ID                                       : 2
Format                                   : MPEG Audio
Format version                           : Version 1
Format profile                           : Layer 3
Mode                                     : Joint stereo
Mode extension                           : MS Stereo
Codec ID                                 : A_MPEG/L3
Codec ID/Hint                            : MP3
Duration                                 : 45mn 56s
Bit rate mode                            : Constant
Bit rate                                 : 128 Kbps
Channel(s)                               : 2 channels
Sampling rate                            : 44.1 KHz
Compression mode                         : Lossy
Stream size                              : 42.1 MiB (12%)
Writing library                          : LAME3.97
Language                                 : English
Default                                  : Yes
Forced                                   : No